<?xml version="1.0" standalone="no"?>
<!DOCTYPE svg PUBLIC "-//W3C//DTD SVG 20010904//EN"
 "http://www.w3.org/TR/2001/REC-SVG-20010904/DTD/svg10.dtd">
<svg version="1.0" xmlns="http://www.w3.org/2000/svg"
 width="700.000000pt" height="700.000000pt" viewBox="0 0 700.000000 700.000000"
 preserveAspectRatio="xMidYMid meet">
<metadata>
Created by potrace 1.14, written by Peter Selinger 2001-2017
</metadata>
<g transform="translate(0.000000,700.000000) scale(0.100000,-0.100000)"
fill="#000000" stroke="none">
<path d="M5509 6859 c-42 -4 -101 -12 -130 -19 -138 -32 -315 -129 -411 -226
l-48 -48 -1782 -1 c-1639 -2 -1788 -3 -1842 -19 -216 -61 -392 -259 -421 -472
-3 -27 -6 -992 -6 -2144 -1 -2306 -4 -2160 60 -2288 83 -164 246 -287 421
-318 25 -4 321 -8 657 -8 l613 -1 437 -437 438 -437 437 437 437 438 598 -1
c647 -1 694 2 807 53 68 30 148 90 197 147 19 22 36 42 39 45 10 10 42 66 61
110 47 103 46 65 47 1879 l0 1715 61 54 c61 54 161 173 161 191 0 5 4 11 8 13
18 7 96 192 109 258 18 93 21 138 18 235 -8 236 -94 428 -265 595 -185 181
-437 270 -701 249z m-1805 -1190 c214 -46 382 -142 534 -304 183 -196 272
-419 274 -682 0 -131 -4 -160 -46 -333 -26 -103 -128 -269 -233 -381 -200
-212 -445 -316 -742 -317 -337 0 -620 145 -830 426 -78 103 -151 270 -166 375
-3 23 -10 56 -14 72 -11 42 -6 257 7 335 28 162 106 327 215 455 149 175 321
288 519 340 119 31 120 31 268 32 90 1 150 -4 214 -18z m56 -2614 c77 -7 127
-13 170 -20 14 -3 41 -7 60 -10 161 -25 352 -76 515 -136 123 -46 387 -171
473 -226 219 -137 363 -246 502 -378 l55 -52 0 -164 0 -164 -700 -3 -700 -2
-321 -321 -321 -320 -320 320 -321 321 -701 0 -701 0 0 168 0 168 37 34 c314
285 595 461 973 610 130 52 320 107 445 129 33 6 69 13 80 15 11 2 45 7 75 11
30 4 64 9 74 11 11 2 65 6 120 10 56 4 102 7 103 9 6 4 333 -3 403 -10z"/>
</g>
</svg>
